# xmcd
#
# Track frame offsets:
# 150
# 22160
# 44319
# 68196
# 84520
# 100776
# 117032
# 139281
# 158597
# 182885
# 202009
# 220575
# 242603
#
# Disc length: 3492 seconds
#
#
# Revision: 0
# Processed by: cddbd v1.4PL0 Copyright (c) Steve Scherf et al.
# Submitted via: FreeRIP 2.12 
#
DISCID=b10da20d
DTITLE=張智成 - 凌晨三點鐘
DYEAR=2003
DGENRE=
TTITLE0=01-凌晨三點鐘
TTITLE1=02-在KTV過夜
TTITLE2=03-下次再見
TTITLE3=04-Forever
TTITLE4=05-重返寂寞
TTITLE5=06-愛情
TTITLE6=
TTITLE7=07-明知故問
TTITLE8=08-不夜城2001版
TTITLE9=09-刺心
TTITLE10=10-耿耿於懷
TTITLE11=11-請問愛情
TTITLE12=12-Wonderful Tonight
EXTD=
EXTT0=
EXTT1=
EXTT2=
EXTT3=
EXTT4=
EXTT5=
EXTT6=
EXTT7=
EXTT8=
EXTT9=
EXTT10=
EXTT11=
EXTT12=
PLAYORDER=
